<svg width="157" height="65" viewBox="0 0 157 65" fill="none" xmlns="http://www.w3.org/2000/svg">
<path d="M19.0034 25.9213L18.795 25.3762C18.3067 24.5784 18.0972 23.5044 18.0972 22.3199C18.0972 17.8652 18.3616 16.5478 19.3923 16.1606L19.515 21.9583C19.515 22.2044 19.6978 22.4433 19.9695 22.4433H20.1301C20.4018 22.4433 20.584 22.1732 20.584 21.921L21.0635 16.0001C21.1868 16.0006 21.3129 16.0012 21.4463 16.0006C21.6796 16.0006 21.8952 16.0023 22.0969 16.0067L22.5753 22.0049C22.5742 22.2354 22.757 22.4427 23.0287 22.4427H23.1892C23.4609 22.4427 23.6437 22.1727 23.6437 21.9204L23.7626 16.2984C24.7944 16.8528 24.7955 18.4296 24.7955 22.8844C24.7955 24.0856 24.5816 25.039 24.0782 25.7023C23.9121 26.0673 23.7138 26.5013 23.5026 26.9585C23.3576 27.2725 23.2082 27.5947 23.0587 27.9136C22.877 28.3014 22.6981 28.677 22.532 29.0204L23.0054 47.201C23.0053 47.6299 22.093 48 21.6641 48H20.9579C20.529 48 19.6167 47.5967 19.6167 47.1677L20.0962 28.7775L19.5762 27.4179L19.0034 25.9213ZM21.4124 46.6427C21.8846 46.6427 22.2675 46.2599 22.2675 45.7876C22.2675 45.3154 21.8846 44.9326 21.4124 44.9326C20.9402 44.9326 20.5573 45.3154 20.5573 45.7876C20.5573 46.2599 20.9402 46.6427 21.4124 46.6427Z" fill="#FFAE4C"/>
<path d="M7.20459 22.8249C7.20459 20.2969 8.6986 16.3311 11.2266 16.3311C13.7545 16.3311 15.2485 20.2964 15.2485 22.8249C15.2485 24.9229 14.2168 26.6874 12.4217 27.228L12.9456 47.3094C12.9456 47.7311 12.0477 48 11.626 48H10.9315C10.5098 48 9.61197 47.7311 9.61197 47.3094L10.1353 27.2563C8.27633 26.7535 7.20459 24.9628 7.20459 22.8249ZM11.2266 46.6427C11.6988 46.6427 12.0816 46.2599 12.0816 45.7876C12.0816 45.3154 11.6988 44.9326 11.2266 44.9326C10.7543 44.9326 10.3715 45.3154 10.3715 45.7876C10.3709 46.2599 10.7543 46.6427 11.2266 46.6427Z" fill="#FFAE4C"/>
<path d="M35.0508 43.9648L28.5996 44C28.4824 44 28.4238 43.9414 28.4238 43.8242L28.4941 19.0918C28.4941 18.998 28.541 18.9512 28.6348 18.9512L35.3672 18.916C36.7031 18.8809 37.9102 19.1855 38.9883 19.8301C40.0781 20.4746 40.9453 21.3477 41.5898 22.4492C42.2461 23.5391 42.5742 24.7461 42.5742 26.0703V36.4062C42.5742 37.7891 42.2402 39.0547 41.5723 40.2031C40.8926 41.3398 39.9902 42.248 38.8652 42.9277C37.7402 43.5957 36.4688 43.9414 35.0508 43.9648ZM35.3672 23.2227L32.8535 23.2578L32.8184 39.5703H35.0508C35.9414 39.5703 36.6914 39.2598 37.3008 38.6387C37.9102 38.0176 38.2148 37.2734 38.2148 36.4062V26.0352C38.2148 25.2734 37.9336 24.6113 37.3711 24.0488C36.8086 23.4746 36.1406 23.1992 35.3672 23.2227ZM49.6582 44H45.5801C45.4629 44 45.4043 43.9414 45.4043 43.8242L45.4395 19.0918C45.4395 18.998 45.4863 18.9512 45.5801 18.9512H49.623C49.7168 18.9512 49.7637 18.998 49.7637 19.0918L49.7988 43.8242C49.7988 43.9414 49.752 44 49.6582 44ZM56.8828 44H53.2793C53.0918 44 52.998 43.918 52.998 43.7539L52.9629 19.2324C52.9629 19.0449 53.0566 18.9512 53.2441 18.9512H56.4961L62.5781 33.1367L62.4023 19.2324C62.4023 19.0449 62.5078 18.9512 62.7188 18.9512H66.2871C66.4277 18.9512 66.498 19.0449 66.498 19.2324L66.5332 43.7891C66.5332 43.9297 66.4746 44 66.3574 44H63.1934L56.9531 30.7461L57.2168 43.7188C57.2168 43.9062 57.1055 44 56.8828 44ZM81.4395 44H69.8027C69.709 44 69.6621 43.9414 69.6621 43.8242L69.6973 19.0918C69.6973 18.998 69.7441 18.9512 69.8379 18.9512H81.4043C81.498 18.9512 81.5449 19.0098 81.5449 19.127V23.1523C81.5449 23.2461 81.498 23.293 81.4043 23.293H74.0215V28.918H81.4043C81.498 28.918 81.5449 28.9648 81.5449 29.0586L81.5801 33.1367C81.5801 33.2305 81.5332 33.2773 81.4395 33.2773H74.0215V39.5703H81.4395C81.5332 39.5703 81.5801 39.6289 81.5801 39.7461V43.8594C81.5801 43.9531 81.5332 44 81.4395 44ZM100.723 44H94.2715C94.1777 44 94.1309 43.9414 94.1309 43.8242L94.2012 19.0918C94.2012 18.998 94.248 18.9512 94.3418 18.9512H101.268C102.615 18.9512 103.84 19.2793 104.941 19.9355C106.02 20.5918 106.869 21.4648 107.49 22.5547C108.111 23.6328 108.422 24.8047 108.422 26.0703C108.422 27.1016 108.188 28.0625 107.719 28.9531C107.25 29.8438 106.693 30.5645 106.049 31.1152C106.74 31.8066 107.279 32.6094 107.666 33.5234C108.053 34.4375 108.246 35.3984 108.246 36.4062C108.246 37.8008 107.912 39.0723 107.244 40.2207C106.564 41.3691 105.656 42.2891 104.52 42.9805C103.383 43.6602 102.117 44 100.723 44ZM101.268 23.2227H98.5254V28.8828H101.268C102.1 28.8828 102.773 28.5898 103.289 28.0039C103.805 27.4062 104.062 26.7617 104.062 26.0703C104.062 25.3086 103.787 24.6465 103.236 24.084C102.686 23.5098 102.029 23.2227 101.268 23.2227ZM100.723 33.2422H98.5254L98.4902 39.6055H100.723C101.59 39.6055 102.334 39.2891 102.955 38.6562C103.576 38.0234 103.887 37.2734 103.887 36.4062C103.887 35.5391 103.576 34.7949 102.955 34.1738C102.334 33.5527 101.59 33.2422 100.723 33.2422Z" fill="#FFAE4C"/>
<g clip-path="url(#clip0_2073_5)">
<path d="M126 16C117.163 16 110 23.1641 110 32.001C110 40.8379 117.163 48 126 48C134.836 48 142 40.8379 142 32.001C142 23.1641 134.836 16 126 16ZM125.823 42.2538C120.275 42.2538 115.778 37.7558 115.778 32.208C115.778 26.6601 120.275 22.1621 125.823 22.1621C131.371 22.1621 135.869 26.6602 135.869 32.208C135.869 37.7558 131.371 42.2538 125.823 42.2538Z" fill="#FFAE4C"/>
<circle cx="126" cy="32" r="4.96552" fill="#FFAE4C"/>
</g>
<path d="M151.105 44H147.045C146.939 44 146.887 43.9414 146.887 43.8242V23.293H142.211C142.094 23.293 142.035 23.2344 142.035 23.1172L142.07 19.0918C142.07 18.998 142.117 18.9512 142.211 18.9512H155.887C156.016 18.9512 156.08 18.998 156.08 19.0918V23.1172C156.08 23.2344 156.033 23.293 155.939 23.293H151.211L151.246 43.8242C151.246 43.9414 151.199 44 151.105 44Z" fill="#FFAE4C"/>
<defs>
<clipPath id="clip0_2073_5">
<rect width="32" height="32" fill="white" transform="translate(110 16)"/>
</clipPath>
</defs>
</svg>
